{
 "accessors": [
  {
   "componentType": 5126,
   "type": "VEC3",
   "count": 41662,
   "max": [
    65.71395111083984,
    185.8206787109375,
    20.283586502075195
   ],
   "min": [
    -66.2000732421875,
    -0.35622352361679077,
    -15.311827659606934
   ],
   "bufferView": 3
  },
  {
   "componentType": 5126,
   "type": "VEC3",
   "count": 41662,
   "bufferView": 4
  },
  {
   "componentType": 5126,
   "type": "VEC2",
   "count": 41662,
   "bufferView": 5
  },
  {
   "componentType": 5123,
   "type": "SCALAR",
   "count": 61632,
   "bufferView": 6
  }
 ],
 "asset": {
  "version": "2.0",
  "generator": "clara.io"
 },
 "bufferViews": [
  {
   "buffer": 0,
   "byteOffset": 0,
   "byteLength": 441056
  },
  {
   "buffer": 0,
   "byteOffset": 441056,
   "byteLength": 254395
  },
  {
   "buffer": 0,
   "byteOffset": 695452,
   "byteLength": 93207
  },
  {
   "buffer": 0,
   "byteOffset": 788660,
   "byteLength": 499944,
   "target": 34962,
   "byteStride": 12
  },
  {
   "buffer": 0,
   "byteOffset": 1288604,
   "byteLength": 499944,
   "target": 34962,
   "byteStride": 12
  },
  {
   "buffer": 0,
   "byteOffset": 1788548,
   "byteLength": 333296,
   "target": 34962,
   "byteStride": 8
  },
  {
   "buffer": 0,
   "byteOffset": 2121844,
   "byteLength": 123264,
   "target": 34963
  }
 ],
 "buffers": [
  {
   "byteLength": 2245108,
   "uri": "data:application/octet-stream;base64,"
  }
 ],
 "images": [
  {
   "name": "rp_eric_rigged_001_norm.jpg",
   "bufferView": 0,
   "mimeType": "image/jpeg"
  },
  {
   "name": "rp_eric_rigged_001_dif.jpg",
   "bufferView": 1,
   "mimeType": "image/jpeg"
  },
  {
   "name": "AO_ROUGH_METAL_100.jpg",
   "bufferView": 2,
   "mimeType": "image/jpeg"
  }
 ],
 "materials": [
  {
   "name": "rp_eric_rigged_001_mat",
   "pbrMetallicRoughness": {
    "baseColorTexture": {
     "index": 1,
     "texCoord": 0
    },
    "roughnessFactor": 0,
    "metallicFactor": 0,
    "metallicRoughnessTexture": {
     "index": 2
    }
   },
   "normalTexture": {
    "index": 0,
    "scale": 2
   }
  }
 ],
 "meshes": [
  {
   "primitives": [
    {
     "indices": 3,
     "material": 0,
     "mode": 4,
     "attributes": {
      "POSITION": 0,
      "NORMAL": 1,
      "TEXCOORD_0": 2
     }
    }
   ]
  }
 ],
 "nodes": [
  {
   "name": "rp_eric_rigged_001",
   "scale": [
    0.009999999776482582,
    0.009999999776482582,
    0.009999999776482582
   ],
   "children": [
    3
   ]
  },
  {
   "name": "CameraPreset"
  },
  {
   "name": "LightPreset",
   "rotation": [
    0.30144560489269007,
    0,
    0,
    0.953483373463
   ]
  },
  {
   "name": "rp_eric_rigged_001_geo",
   "mesh": 0
  }
 ],
 "samplers": [
  {
   "magFilter": 9729,
   "minFilter": 9987,
   "wrapS": 10497,
   "wrapT": 10497
  }
 ],
 "scene": 0,
 "scenes": [
  {
   "nodes": [
    0,
    1,
    2
   ]
  }
 ],
 "textures": [
  {
   "sampler": 0,
   "source": 0
  },
  {
   "sampler": 0,
   "source": 1
  },
  {
   "sampler": 0,
   "source": 2
  }
 ]
}