{
 "accessors": [
  {
   "componentType": 5126,
   "type": "VEC3",
   "count": 110,
   "max": [
    0.0989999994635582,
    0.44999998807907104,
    0.10000000149011612
   ],
   "min": [
    -0.0989999994635582,
    -0.44999998807907104,
    -0.09589999914169312
   ],
   "bufferView": 0
  },
  {
   "componentType": 5126,
   "type": "VEC3",
   "count": 110,
   "bufferView": 1
  },
  {
   "componentType": 5126,
   "type": "VEC2",
   "count": 110,
   "bufferView": 2
  },
  {
   "componentType": 5121,
   "type": "SCALAR",
   "count": 132,
   "bufferView": 3
  },
  {
   "componentType": 5126,
   "type": "VEC3",
   "count": 240,
   "max": [
    0.5,
    0.5,
    0.5
   ],
   "min": [
    -0.5,
    -0.5,
    -0.5
   ],
   "bufferView": 4
  },
  {
   "componentType": 5126,
   "type": "VEC3",
   "count": 240,
   "bufferView": 5
  },
  {
   "componentType": 5126,
   "type": "VEC2",
   "count": 240,
   "bufferView": 6
  },
  {
   "componentType": 5121,
   "type": "SCALAR",
   "count": 240,
   "bufferView": 7
  }
 ],
 "asset": {
  "version": "2.0",
  "generator": "clara.io"
 },
 "bufferViews": [
  {
   "buffer": 0,
   "byteOffset": 0,
   "byteLength": 1320,
   "target": 34962,
   "byteStride": 12
  },
  {
   "buffer": 0,
   "byteOffset": 1320,
   "byteLength": 1320,
   "target": 34962,
   "byteStride": 12
  },
  {
   "buffer": 0,
   "byteOffset": 2640,
   "byteLength": 880,
   "target": 34962,
   "byteStride": 8
  },
  {
   "buffer": 0,
   "byteOffset": 3520,
   "byteLength": 132,
   "target": 34963
  },
  {
   "buffer": 0,
   "byteOffset": 3652,
   "byteLength": 2880,
   "target": 34962,
   "byteStride": 12
  },
  {
   "buffer": 0,
   "byteOffset": 6532,
   "byteLength": 2880,
   "target": 34962,
   "byteStride": 12
  },
  {
   "buffer": 0,
   "byteOffset": 9412,
   "byteLength": 1920,
   "target": 34962,
   "byteStride": 8
  },
  {
   "buffer": 0,
   "byteOffset": 11332,
   "byteLength": 240,
   "target": 34963
  }
 ],
 "buffers": [
  {
   "byteLength": 11572,
   "uri": "data:application/octet-stream;base64,"
  }
 ],
 "materials": [
  {
   "name": "Leaves",
   "pbrMetallicRoughness": {
    "baseColorFactor": [
     0.5568627450980392,
     1,
     0,
     1
    ],
    "roughnessFactor": 0.1961,
    "metallicFactor": 0
   },
   "doubleSided": true
  },
  {
   "name": "Trunk",
   "pbrMetallicRoughness": {
    "baseColorFactor": [
     0.2784313725490196,
     0.14901960784313725,
     0,
     1
    ],
    "roughnessFactor": 0.1961,
    "metallicFactor": 0
   },
   "doubleSided": true
  }
 ],
 "meshes": [
  {
   "primitives": [
    {
     "indices": 3,
     "material": 1,
     "mode": 4,
     "attributes": {
      "POSITION": 0,
      "NORMAL": 1,
      "TEXCOORD_0": 2
     }
    }
   ]
  },
  {
   "primitives": [
    {
     "indices": 7,
     "material": 0,
     "mode": 4,
     "attributes": {
      "POSITION": 4,
      "NORMAL": 5,
      "TEXCOORD_0": 6
     }
    }
   ]
  }
 ],
 "nodes": [
  {
   "name": "Cylinder",
   "mesh": 0
  },
  {
   "name": "Icosahedron",
   "translation": [
    0,
    0.8586000204086304,
    0
   ],
   "mesh": 1
  }
 ],
 "scene": 0,
 "scenes": [
  {
   "nodes": [
    0,
    1
   ]
  }
 ]
}