{
 "accessors": [
  {
   "componentType": 5126,
   "type": "VEC3",
   "count": 51168,
   "max": [
    25.111690521240234,
    16.422924041748047,
    29.528776168823242
   ],
   "min": [
    -25.111690521240234,
    -16.462196350097656,
    -1.3174762725830078
   ],
   "bufferView": 1
  },
  {
   "componentType": 5126,
   "type": "VEC3",
   "count": 51168,
   "bufferView": 2
  },
  {
   "componentType": 5126,
   "type": "VEC2",
   "count": 51168,
   "bufferView": 3
  },
  {
   "componentType": 5123,
   "type": "SCALAR",
   "count": 51168,
   "bufferView": 4
  }
 ],
 "asset": {
  "version": "2.0",
  "generator": "clara.io"
 },
 "bufferViews": [
  {
   "buffer": 0,
   "byteOffset": 0,
   "byteLength": 136989
  },
  {
   "buffer": 0,
   "byteOffset": 136992,
   "byteLength": 614016,
   "target": 34962,
   "byteStride": 12
  },
  {
   "buffer": 0,
   "byteOffset": 751008,
   "byteLength": 614016,
   "target": 34962,
   "byteStride": 12
  },
  {
   "buffer": 0,
   "byteOffset": 1365024,
   "byteLength": 409344,
   "target": 34962,
   "byteStride": 8
  },
  {
   "buffer": 0,
   "byteOffset": 1774368,
   "byteLength": 102336,
   "target": 34963
  }
 ],
 "buffers": [
  {
   "byteLength": 1876704,
   "uri": "data:application/octet-stream;base64,"
  }
 ],
 "images": [
  {
   "name": "bagchair_color01.jpg",
   "bufferView": 0,
   "mimeType": "image/jpeg"
  }
 ],
 "materials": [
  {
   "name": "bag_chair",
   "pbrMetallicRoughness": {
    "baseColorTexture": {
     "index": 0,
     "texCoord": 0
    },
    "metallicFactor": 0
   },
   "doubleSided": true
  }
 ],
 "meshes": [
  {
   "primitives": [
    {
     "indices": 3,
     "material": 0,
     "mode": 4,
     "attributes": {
      "POSITION": 0,
      "NORMAL": 1,
      "TEXCOORD_0": 2
     }
    }
   ]
  }
 ],
 "nodes": [
  {
   "name": "bag_chair",
   "translation": [
    0.013100000098347664,
    0.013500000350177288,
    0.006800000090152025
   ],
   "rotation": [
    -0.7071067811865475,
    0,
    0,
    0.7071067811865476
   ],
   "scale": [
    0.018799999728798866,
    0.018799999728798866,
    0.018799999728798866
   ],
   "mesh": 0
  }
 ],
 "samplers": [
  {
   "magFilter": 9729,
   "minFilter": 9987,
   "wrapS": 10497,
   "wrapT": 10497
  }
 ],
 "scene": 0,
 "scenes": [
  {
   "nodes": [
    0
   ]
  }
 ],
 "textures": [
  {
   "sampler": 0,
   "source": 0
  }
 ]
}